<?xml version="1.0" encoding="utf-8"?>
<!-- Generator: Adobe Illustrator 17.1.0, SVG Export Plug-In . SVG Version: 6.00 Build 0)  -->
<!DOCTYPE svg PUBLIC "-//W3C//DTD SVG 1.1//EN" "http://www.w3.org/Graphics/SVG/1.1/DTD/svg11.dtd">
<svg version="1.1" id="Layer_1" xmlns="http://www.w3.org/2000/svg" xmlns:xlink="http://www.w3.org/1999/xlink" x="0px" y="0px"
	 width="525.6px" height="265.7px" viewBox="0 0 525.6 265.7" enable-background="new 0 0 525.6 265.7" xml:space="preserve">
<path id="SKYLINE_2_" fill="#2066A6" d="M525.6,48.8c0,24.5,0,99.5,0,124c-174.8,0-351,0-525.6,0C0,146.9,0,72,0,46"/>
<g id="codethecity_lettering_4_">
	<path fill="#FFFFFF" d="M43.6,93.3c8.6,0,18.9,3,18.9,10.9v6.8H50.2v-2.6c0-2.1-2.8-3.2-6.1-3.2c-6.8,0-9.6,4.3-9.6,10.1
		c0,7.6,4.9,10.9,10.8,10.9c4.3,0,9.3-1.8,12.9-4.8l4.8,10.1c-4.6,4.2-11.8,6.6-18.7,6.6c-12.8,0-24.4-8.3-24.4-22.4
		C20,103.5,29.6,93.3,43.6,93.3z"/>
	<path fill="#FFFFFF" d="M91.6,93.3c13.6,0,24.4,9.1,24.4,22.6c0,13.4-10.8,22.4-24.4,22.4c-13.5,0-24.4-8.9-24.4-22.4
		C67.3,102.4,78.2,93.3,91.6,93.3z M91.7,126.2c5.3,0,9.8-3.9,9.8-10.3c0-6.5-4.5-10.6-9.8-10.6c-5.3,0-9.8,4.1-9.8,10.6
		C81.9,122.3,86.4,126.2,91.7,126.2z"/>
	<path fill="#FFFFFF" d="M140.3,93.3c8.3,0,11,4.3,11,4.3h0.2c0,0-0.1-1.2-0.1-2.8V88h-5.8V77.6h20.3V125c0,1.2,0.7,1.8,1.8,1.8h3.2
		v10.4h-12.4c-4.2,0-5.8-2.4-5.8-4.5v-0.3c0-0.8,0.2-1.3,0.2-1.3h-0.2c0,0-3.3,7.1-13.3,7.1c-11.4,0-18.9-9.2-18.9-22.4
		C120.4,102.1,128.4,93.3,140.3,93.3z M143.3,126.3c4.3,0,8.5-3.3,8.5-10.2c0-5.7-2.8-10.7-8.3-10.7c-4.8,0-8.6,3.7-8.6,10.3
		C134.9,122.1,138.4,126.3,143.3,126.3z"/>
	<path fill="#FFFFFF" d="M197.9,93.3c12.9,0,20,8.8,20,20.8c0,1.4-0.3,4.3-0.3,4.3h-27.3c1.1,5.5,5.4,7.9,10,7.9
		c6.3,0,12.1-4.1,12.1-4.1l5.3,10c0,0-6.9,6-18.5,6c-15.4,0-23.6-11.1-23.6-22.5C175.6,103.1,184.1,93.3,197.9,93.3z M203,110.5
		c0-3.4-2.3-6.3-5.4-6.3c-4.2,0-6.2,3-6.9,6.3H203z"/>
	<path fill="#FFFFFF" d="M229.7,98.8h-7.9v-3.3h7.9V83.9h3.5v11.6h10.9v3.3h-10.9v23.1c0,11,6.6,12.4,9.9,12.4
		c1.2,0,1.9-0.2,1.9-0.2v3.3c0,0-0.8,0.2-2.1,0.2c-4.3,0-13.3-1.6-13.3-15.4V98.8z"/>
	<path fill="#FFFFFF" d="M249.1,134h7.5V82.1h-7.9v-3.3h11.4v24c0,1.9-0.3,3.4-0.3,3.4h0.2c1.4-3.9,7.3-11.8,17.7-11.8
		c10.8,0,13.8,6.4,13.8,16.3V134h7.5v3.3h-11v-25.2c0-7.3-0.9-14.1-10.3-14.1c-9.7,0-17.5,7.9-17.5,18.9V134h7.5v3.3h-18.5V134z"/>
	<path fill="#FFFFFF" d="M321.4,94.5c11.3,0,17,8.9,17,19c0,0.9-0.2,2.3-0.2,2.3h-33.5c0,12.1,8.2,19,17.9,19c8,0,12.9-5.3,12.9-5.3
		l1.9,2.9c0,0-5.8,5.8-14.9,5.8c-11.8,0-21.5-8.5-21.5-21.8C301.2,102.4,310.7,94.5,321.4,94.5z M334.8,112.6
		c-0.4-10.2-6.5-14.8-13.4-14.8c-7.7,0-14.8,5-16.3,14.8H334.8z"/>
	<path fill="#FFFFFF" d="M368.2,93.3c8.6,0,18.9,3,18.9,10.9v6.8h-12.3v-2.6c0-2.1-2.8-3.2-6.1-3.2c-6.8,0-9.6,4.3-9.6,10.1
		c0,7.6,4.9,10.9,10.8,10.9c4.3,0,9.3-1.8,12.9-4.8l4.8,10.1c-4.6,4.2-11.8,6.6-18.7,6.6c-12.8,0-24.4-8.3-24.4-22.4
		C344.7,103.5,354.3,93.3,368.2,93.3z"/>
	<path fill="#FFFFFF" d="M393.4,126.8h5.4v-22.1H393V94.3h20.3v32.5h5.4v10.4h-25.3V126.8z M399,77.6h14.1v11.3H399V77.6z"/>
	<path fill="#FFFFFF" d="M428,104.7h-5.8V94.3h6.3V82.7h14v11.6h9v10.4h-9v15.2c0,5.2,4.9,5.9,7.7,5.9c1.2,0,1.9-0.1,1.9-0.1v11.7
		c0,0-1.6,0.3-3.9,0.3c-6.8,0-20.1-1.8-20.1-16.3V104.7z"/>
	<path fill="#FFFFFF" d="M467.1,143.2c3,0,5.9-0.8,7.1-3.5l0.2-0.4l-14.2-34.5h-4.8V94.3H479v10.4h-4.2l5.3,15.9
		c0.8,2.6,1,5.6,1,5.6h0.3c0,0,0.4-3,1.3-5.6l5.1-15.9h-3.9V94.3h22.3v10.4h-4.4L487.9,141c-3.9,10.3-11.7,13.8-20,13.8
		c-7.4,0-12.3-3.3-12.3-3.3l4.4-10.3C460,141.2,462.5,143.2,467.1,143.2z"/>
</g>
<rect id="horizontal_bar_8_" x="0" y="248.4" fill="#2066A6" width="525.6" height="17.2"/>
<text transform="matrix(1 0 0 1 2.997936e-02 233.036)" font-family="'MuseoSlab-100'" font-size="61.4553">CITY NAME YEAR</text>
</svg>
