<?xml version="1.0" encoding="utf-8"?>
<!-- Generator: Adobe Illustrator 17.1.0, SVG Export Plug-In . SVG Version: 6.00 Build 0)  -->
<!DOCTYPE svg PUBLIC "-//W3C//DTD SVG 1.1//EN" "http://www.w3.org/Graphics/SVG/1.1/DTD/svg11.dtd">
<svg version="1.1" id="Layer_1" xmlns="http://www.w3.org/2000/svg" xmlns:xlink="http://www.w3.org/1999/xlink" x="0px" y="0px"
	 width="525.6px" height="265.7px" viewBox="0 0 525.6 265.7" enable-background="new 0 0 525.6 265.7" xml:space="preserve">
<g>
	<path fill="#FFFFFF" d="M143.5,105.5c-4.8,0-8.6,3.7-8.6,10.3c0,6.3,3.4,10.5,8.3,10.5c4.3,0,8.5-3.3,8.5-10.2
		C151.8,110.5,149,105.5,143.5,105.5z"/>
	<path fill="#FFFFFF" d="M197.6,104.1c-4.2,0-6.2,3-6.9,6.3H203C203,107,200.8,104.1,197.6,104.1z"/>
	<path fill="#FFFFFF" d="M91.7,105.3c-5.3,0-9.8,4.1-9.8,10.6c0,6.4,4.5,10.3,9.8,10.3s9.8-3.9,9.8-10.3
		C101.5,109.4,97,105.3,91.7,105.3z"/>
	<path fill="#FFFFFF" d="M40.4,45L40.4,45C40.3,45,40.3,45,40.4,45z"/>
	<path fill="#FFFFFF" d="M520.6,50.7c-0.1,0.3-2.1,0.3-2.8-0.1c-0.7-0.4-0.8-1.7-1.3-2.7c-2.6-0.8-3.4,1.2-3.7,2.8
		c-1.6-0.5-3.1-0.9-4.7-1.3c-0.9,3.9-3.6,2.5-5.6,2.7c-1.8,0.2-3.2-0.2-3.6-2.5c-0.1-0.6-1.3-1-2-1.5c-1,1.6-1.9,2.8-2.7,4.1
		c-3.4-3.6-4.6-4-8.2-1.9c-0.7-4.6-1.4-9-1.9-12.8c-0.9,4.8-1.9,10-2.8,15.1c-4.1,0.9-4.8,0.6-5.6-2.2c-0.1,0.4-0.3,0.8-0.6,1.8
		c-0.5-1.2-0.8-1.9-1.1-2.6c-1.1,0.2-2.2,0.3-3.5,0.5c-0.8,6-5.2,3.1-8.5,3.9c-0.4-1.3-0.8-2.4-1.2-3.6c-2.5-0.3-3.9,0.7-4.9,3.2
		c-0.3,0.7-2.3,1-3.5,1c-0.8,0-2.1-0.9-2.2-1.5c-0.6-2.9-0.8-5.8-1.1-8.7c-0.1-1-0.2-2.1-0.6-3.1c-0.3,3.2-0.7,6.3-1,9.7
		c-1.9,0-3.3,0.7-4.5,2.6c-0.8,1.2-3.4,0.9-5.2,1.4c-2.9,0.8-2.5-2.1-3.3-3c-2.3,0.8-4.4,1.5-6.5,2.2c-0.5,0.1-1,0-1.4,0.2
		c-2.7,1.8-3.7,1.3-4.5-2.5c-1.7,1.1-3.2,2.1-4.9,3.2c-0.4-0.5-0.9-1.1-1.4-1.6c-0.7,0.6-1.4,1.2-2.2,1.9c-0.6-1.2-1.1-2.1-1.4-2.7
		c-1.5,0.4-3.3,1.4-3.8,0.9c-0.9-0.8-1.3-2.6-1.6-4c-0.4-1.9-0.4-3.8-1-5.8c-0.4,3.5-0.9,7.1-1.3,10.8c-2.5-0.6-5.4,4.7-7.3-0.1
		c-2.2,0-4,0-6.2,0c-0.1,0.1-0.5,0.8-0.5,0.8c-3.9-0.2-7.2-0.4-11.3-0.6c-1.2,1.3-2.2-0.2-3.2-2.3c-0.8,0.7-1.4,1.4-2.4,2.3
		c0-3.4,0-6.6,0-9.8c-1.8-0.3-3.4-1-4.9-0.7c-2.9,0.5-5.5-0.9-7.4-2.4c-3.9-3-8.1-2-12.3-2.3c-1.2-0.1-2.4,0.2-3.6,0.3
		c-1,3.7-1,3.7-4.8,3.7c-5.6,0-5.5,0-5.6,6c0,1.8-0.2,3.7-0.9,5.3c-0.3,0.7-1.9,1.1-2.9,1.1c-1.2,0-2.5-0.5-3.7-0.8
		c-1-0.2-2.3,0.6-2.7-1.3c0-0.2-2.1-0.4-2.7,0.2c-1.2,1-1.9,2-3.7,0.8c-0.7-0.5-2.3,0.5-3.4,0.3c-1.7-0.4-3.3-1.2-5.2-1.9
		c-0.5-1.3-1-2.7-1.7-4.3c-0.2,0.1-1,0.4-1.9,0.8c0.3,0.4,0.6,0.8,1,1.4c-1.5,0-3,0-4.3,0c-0.2-0.9-0.4-1.8-0.7-2.8
		c-0.6,0.6-1,0.9-1.7,1.5c-1.3-8.3-2.6-16.2-3.9-24c-1.5,8.6-2.9,17.2-4.4,25.8c-0.2,0-0.4,0-0.7,0c-0.3-0.7-0.6-1.4-1.3-2.8
		c-0.2,2.1-0.3,3.4-0.5,4.7c-0.1,0.8-0.4,2.1-0.7,2.1c-1,0.1-2.1-0.1-2.9-0.6c-0.8-0.7-1.5-1.8-1.8-2.9c-0.9-3.4-1.6-6.9-2.9-10.4
		c-0.3,0.8-0.5,1.6-0.8,2.4c-0.1,0-0.3,0-0.4,0c0-10.2,0-20.3,0-30.5c-2.8,3.1-1,7.6-3,10.7c-0.3,0-0.5-0.1-0.8-0.1
		c-0.2-1.5-0.5-3-0.6-4.4C275.4,13,275,6.5,274.6,0c-0.2,0-0.3,0-0.5,0c-0.3,2.1-0.5,4.3-0.8,6.4c-0.4,2.8-0.9,5.5-1.2,8.3
		c-0.3,2.5-0.3,5.1-0.6,7.6c-0.1,0.6-0.8,1.1-1.7,2.2c-0.4-4.7-0.8-8.4-1.1-12.1c-0.2,0-0.5,0-0.7,0c-2.4,13.2-0.8,26.7-2.4,40.7
		c-3-3.9-2.1-8.5-4.1-12.7c-0.8,3.8-1.5,7-2.3,10.5c-2.8-1.7-6.3-2.2-5.5-6.4c-1.8-0.8-3.4-1.7-5-2.3c-0.5-0.2-1.5,0-1.9,0.3
		c-2.4,2.1-3.5,2-5.9,0.1c-0.6-0.4-2-0.5-2.5-0.1c-2.4,2.5-3.3,2.6-6.1,0.4c-1.5,0.7-2.8,1.4-2.7,3.7c0,0.8-1.1,1.7-1.8,2.9
		c-0.6-1.6-1-2.5-1.4-3.5c-0.3,0-0.7,0-1,0c1.3,3.6-1.3,4.9-2.9,6.8c-0.3,0.3-0.9,0.6-1.3,0.6c-2.5,0-5.1-0.1-7.8-0.2
		c0-4.5-0.1-9,0-13.4c0.1-4.4,0.4-8.9,0.6-13.3c0.1-1.8-0.2-3-2.1-3.4c-1.7-0.4-2.7-1.3-2.5-3.5c0.1-1-0.6-2.2-0.9-3.3
		c-0.6,0.9-1.2,1.7-1.8,2.6c-2.6-0.2-5.5-0.3-8.4-0.5c-0.7,3-2.6,3.7-5.3,3.5c0,1.5,0,2.9,0,4.2c-0.2,7.9-0.3,15.8-0.5,23.7
		c0,1.5-0.3,3.1-0.6,4.6c-0.1,0.6-0.8,1.3-1.3,1.4c-0.5,0.1-1.1-0.7-1.5-1.1c-0.7-0.7-1.3-1.6-2-2.3c-0.5,1.1-1,2.2-1.4,3.3
		c-0.1,0.4-0.1,0.9-0.1,1.5c-2.1,0.4-3.6,0.1-5.7-1c-3.8-2-8.2-3.3-12.4-3.7c-5.5-0.6-11.1-0.2-16.6-0.2c-0.6-1.9-0.9-3.1-1.3-4.4
		c-3.1-0.1-5.8-0.3-7.8-3.6c-1.7-2.8-5.1-1.6-8-2c0-3.6,0-7.3,0-10.7c-1.1-0.8-2.1-1.5-2.9-2.2c-2.6,0.9-3.2,3-2.9,5.8
		c0.2,2.7-0.2,5.5-0.5,8.2c-0.3,2.6-2.1,4-4.6,3.7c-0.8-0.1-1.6-0.1-2.4-0.1c-4,0-4.6-0.6-5.5-5.2c-0.4,1.1-0.7,1.8-1.2,3.2
		c-0.3-1.3-0.4-2-0.6-3c-2.6-0.2-5.2-0.4-7.8-0.6c0.1,0.2,0.2,0.5,0.3,0.7c-0.7,0.9-1.5,1.7-2,2.7c-0.5,1-0.8,2.1-1,3.3
		c-0.9,3.6-1.3,3.9-4.6,3.4c-1.9-0.3-4-1.2-5.7-0.8c-2.9,0.8-2.8-1-3.1-3c-1.2-0.1-2.4-0.2-3.8-0.3c-0.1,1.8-0.6,2.9-2.7,2
		c-0.8-0.4-2,0.1-3-0.1c-2.4-0.6-3.5-2-3.2-4.9c0.3-3.5,0.4-7.2-0.2-10.6c-0.3-2-2.3-3.7-1.6-6.1c-4.3-3.8-1.4-9.7-4-14.2
		c-1.4,6.6-2.8,13.1-4.1,19.7c-0.3,0-0.5,0-0.8,0c-0.3-0.5-0.7-0.9-1-1.4c-0.3,0-0.5,0-0.8,0.1c-0.3,4.5-0.7,8.9-1,13.6
		c-1.3-0.1-2.5-0.3-3.7-0.2c-0.6,0.1-1.7,0.5-1.8,1c-0.5,2.9-1.9,1.9-3.3,1.1c0-1-0.1-1.9-0.2-3.5c-0.8,1.3-1.1,2.3-1.7,2.6
		c-0.6,0.3-2.1-0.1-2.2-0.4c-0.4-2.2-1.7-1.9-3.2-1.6c-1.6,0.3-3.2,0.6-5.1,1c0-0.1-0.3-0.7-0.6-1.3c-0.2,0.3-0.5,0.7-0.6,0.8l0,0
		c0,0,0,0,0,0c-1.8-0.6-3.3-1-4.7-1.6c-0.7-0.3-1.4-1.1-1.8-1.8c-0.4-0.8-0.4-1.8-0.6-3c-0.6,2.1-1.1,3.9-1.6,5.7
		c-0.3,1.1-1.2,2.1-1.9,0.6c-0.9-1.9-2.4-0.9-3.6-1.1c-0.9-0.2-1.9,0-3.4,0c-3,2.4-4,2.4-5.8-0.7c-3.4,4.4-8.2,2.2-12.4,2.7
		c-1.3,0.1-3.2,0-4.6-0.5c0,26,0,101.7,0,127.7c174.6,0,350.9,0,525.6,0c0-24.5,0-99.2,0-123.7C524.1,49.1,521.4,48.5,520.6,50.7z
		 M44.5,138.3c-12.8,0-24.4-8.3-24.4-22.4c0-12.4,9.6-22.6,23.5-22.6c8.6,0,18.9,3,18.9,10.9v6.8H50.2v-2.6c0-2.1-2.8-3.2-6.1-3.2
		c-6.8,0-9.6,4.3-9.6,10.1c0,7.6,4.9,10.9,10.8,10.9c4.3,0,9.3-1.8,12.9-4.8l4.8,10.1C58.6,135.8,51.4,138.3,44.5,138.3z
		 M91.7,138.3c-13.5,0-24.4-8.9-24.4-22.4c0-13.5,10.8-22.6,24.3-22.6c13.6,0,24.4,9.1,24.4,22.6
		C116.1,129.3,105.2,138.3,91.7,138.3z M170.8,137.3h-12.4c-4.2,0-5.8-2.4-5.8-4.5v-0.3c0-0.8,0.2-1.3,0.2-1.3h-0.2
		c0,0-3.3,7.1-13.3,7.1c-11.4,0-18.9-9.2-18.9-22.4c0-13.7,8-22.5,19.9-22.5c8.3,0,11,4.3,11,4.3h0.2c0,0-0.1-1.2-0.1-2.8V88h-5.8
		V77.6h20.3V125c0,1.2,0.7,1.8,1.8,1.8h3.2V137.3z M200.4,126.3c6.3,0,12.1-4.1,12.1-4.1l5.3,10c0,0-6.9,6-18.5,6
		c-15.4,0-23.6-11.1-23.6-22.5c0-12.6,8.5-22.4,22.4-22.4c12.9,0,20,8.8,20,20.8c0,1.4-0.3,4.3-0.3,4.3h-27.3
		C191.4,123.9,195.8,126.3,200.4,126.3z M245.1,137.4c0,0-0.8,0.2-2.1,0.2c-4.3,0-13.3-1.6-13.3-15.4V98.8h-7.9v-3.3h7.9V83.9h3.5
		v11.6h10.9v3.3h-10.9v23.1c0,11,6.6,12.4,9.9,12.4c1.2,0,1.9-0.2,1.9-0.2V137.4z M298.9,137.3h-11v-25.2c0-7.3-0.9-14.1-10.3-14.1
		c-9.7,0-17.5,7.9-17.5,18.9V134h7.5v3.3h-18.5V134h7.5V82.1h-7.9v-3.3h11.4v24c0,1.9-0.3,3.4-0.3,3.4h0.2
		c1.4-3.9,7.3-11.8,17.7-11.8c10.8,0,13.8,6.4,13.8,16.3V134h7.5V137.3z M338.3,115.8h-33.5c0,12.1,8.2,19,17.9,19
		c8,0,12.9-5.3,12.9-5.3l1.9,2.9c0,0-5.8,5.8-14.9,5.8c-11.8,0-21.5-8.5-21.5-21.8c0-14.1,9.6-21.9,20.3-21.9c11.3,0,17,8.9,17,19
		C338.5,114.5,338.3,115.8,338.3,115.8z M369.2,138.3c-12.8,0-24.4-8.3-24.4-22.4c0-12.4,9.6-22.6,23.5-22.6c8.6,0,18.9,3,18.9,10.9
		v6.8h-12.3v-2.6c0-2.1-2.8-3.2-6.1-3.2c-6.8,0-9.6,4.3-9.6,10.1c0,7.6,4.9,10.9,10.8,10.9c4.3,0,9.3-1.8,12.9-4.8l4.8,10.1
		C383.3,135.8,376.1,138.3,369.2,138.3z M399,77.6h14.1v11.3H399V77.6z M418.7,137.3h-25.3v-10.4h5.4v-22.1H393V94.3h20.3v32.5h5.4
		V137.3z M452,137.4c0,0-1.6,0.3-3.9,0.3c-6.8,0-20.1-1.8-20.1-16.3v-16.7h-5.8V94.3h6.3V82.7h14v11.6h9v10.4h-9v15.2
		c0,5.2,4.9,5.9,7.7,5.9c1.2,0,1.9-0.1,1.9-0.1V137.4z M506.2,104.7h-4.4L487.9,141c-3.9,10.3-11.7,13.8-20,13.8
		c-7.4,0-12.3-3.3-12.3-3.3l4.4-10.3c0,0,2.5,2,7.1,2c3,0,5.9-0.8,7.1-3.5l0.2-0.4l-14.2-34.5h-4.8V94.3H479v10.4h-4.2l5.3,15.9
		c0.8,2.6,1,5.6,1,5.6h0.3c0,0,0.4-3,1.3-5.6l5.1-15.9h-3.9V94.3h22.3V104.7z"/>
	<path fill="#FFFFFF" d="M321.3,97.8c-7.7,0-14.8,5-16.3,14.8h29.7C334.4,102.4,328.3,97.8,321.3,97.8z"/>
</g>
<rect id="horizontal_bar_8_" x="0" y="248.4" fill="#FFFFFF" width="525.6" height="17.2"/>
<text transform="matrix(1 0 0 1 0.6642 233.1951)" fill="#FFFFFF" font-family="'MuseoSlab-100'" font-size="66.3489">ABERDEEN 2014</text>
</svg>
